<?xml version="1.0" encoding="UTF-8"?> <svg xmlns="http://www.w3.org/2000/svg" viewBox="0 0 925.82 173.11"><defs><style>.cls-1{fill:#111;}.cls-2{fill:#303030;}.cls-3{fill:#c62e2e;}.cls-4{fill:#bc1e1e;}.cls-5{fill:#e23d3d;}</style></defs><g id="Calque_2" data-name="Calque 2"><g id="Calque_1-2" data-name="Calque 1"><g id="chapeau_vex" data-name="chapeau vex"><path class="cls-1" d="M200.31,27.12v93.16l-36.47,17.5-8,3.84a12.91,12.91,0,0,1-11.19,0l-8-3.84L89.8,115.25,74.68,108,36.21,89.49l-8.3-4L1.87,73a3.3,3.3,0,0,1,0-6l26-12,8.3-3.82L41,49h0L144.85,1.19a12.91,12.91,0,0,1,10.79,0l39.75,18.27A8.43,8.43,0,0,1,200.31,27.12Z"></path><path class="cls-2" d="M200.31,58.77v79H71.05v0a.06.06,0,0,1,0,0l.42-3.44,3.2-26.3,2.51-20.63L77.84,82a13.3,13.3,0,0,1,1-3.77c0-.07,0-.13.08-.19C86.25,61.45,115.6,49,150.68,49,169.81,49,187.23,52.71,200.31,58.77Z"></path><path class="cls-1" d="M200.31,110.62v48.54a8.39,8.39,0,0,1-6,8.06,157.28,157.28,0,0,1-43.94,5.89c-43.82,0-79.34-15.75-79.34-35.17a.86.86,0,0,1,0-.16s0,0,0,0a.06.06,0,0,1,0,0,15.35,15.35,0,0,1,.42-3.44c1.68-7.22,8.29-13.79,18.32-19,14.55-7.63,36.3-12.47,60.59-12.47C169.3,102.78,186.67,105.71,200.31,110.62Z"></path><path class="cls-3" d="M17.51,168.54a4.15,4.15,0,0,1-2-5.52l12.77-26.91a4.15,4.15,0,0,1,7.49,3.56L23,166.57A4.15,4.15,0,0,1,17.51,168.54Z"></path><path class="cls-3" d="M41.09,166.57l-12.77-26.9a4.15,4.15,0,0,1,7.49-3.56L48.58,163a4.14,4.14,0,0,1-7.49,3.55Z"></path><path class="cls-3" d="M41,49l-4.77,2.2v68.25c0,1.84-1.86,3.33-4.14,3.33s-4.15-1.49-4.15-3.33V52.34c0-1.83,1.86-3.33,4.15-3.33Z"></path><path class="cls-4" d="M32.06,138a4.14,4.14,0,0,1-4.14-4.14V165a4.15,4.15,0,1,0,8.29,0V133.87A4.14,4.14,0,0,1,32.06,138Z"></path><path class="cls-5" d="M32.06,173.1A4.14,4.14,0,0,1,27.92,169V137.89a4.15,4.15,0,0,1,8.29,0V169A4.14,4.14,0,0,1,32.06,173.1Z"></path><circle class="cls-5" cx="32.06" cy="127.45" r="10.44"></circle><path class="cls-3" d="M30.66,123.3a10.37,10.37,0,0,1,2.1-6.27c-.23,0-.46,0-.7,0a10.45,10.45,0,1,0,8.35,16.72A10.45,10.45,0,0,1,30.66,123.3Z"></path><path class="cls-3" d="M38.72,143.49H25.4a4.15,4.15,0,0,1,0-8.29H38.72a4.15,4.15,0,1,1,0,8.29Z"></path></g><path class="cls-1" d="M283.43,44.93a30.41,30.41,0,0,1-2.18,11.66,27.23,27.23,0,0,1-6.14,9.24,27.8,27.8,0,0,1-9.54,6.08,33.6,33.6,0,0,1-12.38,2.18H230.55V15.81h22.64A33.6,33.6,0,0,1,265.57,18a28.4,28.4,0,0,1,9.54,6.08,27.05,27.05,0,0,1,6.14,9.22A30.35,30.35,0,0,1,283.43,44.93Zm-13.84,0a25.29,25.29,0,0,0-1.12-7.8,16.62,16.62,0,0,0-3.22-5.9,14,14,0,0,0-5.14-3.72,17.53,17.53,0,0,0-6.92-1.3h-9V63.69h9a17.36,17.36,0,0,0,6.92-1.3,13.81,13.81,0,0,0,5.14-3.72,16.53,16.53,0,0,0,3.22-5.9A25.42,25.42,0,0,0,269.59,44.93Z"></path><path class="cls-1" d="M307.67,32a21.42,21.42,0,0,1,7.54,1.28A16.57,16.57,0,0,1,321.09,37a17,17,0,0,1,3.84,6,22,22,0,0,1,1.38,8,17.36,17.36,0,0,1-.12,2.28,3.45,3.45,0,0,1-.44,1.4,1.63,1.63,0,0,1-.86.72,3.87,3.87,0,0,1-1.38.2H299.59c.4,3.47,1.46,6,3.16,7.54a9.41,9.41,0,0,0,6.6,2.34,11.72,11.72,0,0,0,3.72-.52,17.62,17.62,0,0,0,2.78-1.16l2.24-1.16a4.76,4.76,0,0,1,2.14-.52,2.55,2.55,0,0,1,2.24,1.08l3.6,4.44a18.35,18.35,0,0,1-4.14,3.58,21.51,21.51,0,0,1-4.56,2.16,24.72,24.72,0,0,1-4.68,1.08,35,35,0,0,1-4.46.3,23.25,23.25,0,0,1-8.18-1.42,18.75,18.75,0,0,1-6.68-4.22,19.93,19.93,0,0,1-4.52-7,26.13,26.13,0,0,1-1.66-9.68,22.06,22.06,0,0,1,1.42-7.88,19.14,19.14,0,0,1,10.52-11A21.32,21.32,0,0,1,307.67,32Zm.24,8.56a7.51,7.51,0,0,0-5.56,2,10.59,10.59,0,0,0-2.64,5.82h15.48a10.74,10.74,0,0,0-.38-2.88,6.9,6.9,0,0,0-1.24-2.5,6.33,6.33,0,0,0-2.26-1.78A7.75,7.75,0,0,0,307.91,40.53Z"></path><path class="cls-1" d="M358.79,41.69a3.15,3.15,0,0,1-1,1.08,2.61,2.61,0,0,1-1.38.32,4.33,4.33,0,0,1-1.76-.38l-1.9-.82a22.37,22.37,0,0,0-2.3-.82,10.34,10.34,0,0,0-2.92-.38,6.18,6.18,0,0,0-3.62.9,2.91,2.91,0,0,0-1.26,2.5,2.51,2.51,0,0,0,.82,1.92,7.45,7.45,0,0,0,2.18,1.34,28.61,28.61,0,0,0,3.08,1.1c1.15.35,2.32.74,3.52,1.16a32.07,32.07,0,0,1,3.52,1.5,13.16,13.16,0,0,1,3.08,2.12A9.32,9.32,0,0,1,361,56.29a10.31,10.31,0,0,1,.82,4.32,14.11,14.11,0,0,1-1.12,5.68,11.91,11.91,0,0,1-3.34,4.48,15.57,15.57,0,0,1-5.48,2.92,24.45,24.45,0,0,1-7.5,1,22.62,22.62,0,0,1-4.24-.4,27.74,27.74,0,0,1-4.1-1.08,21.78,21.78,0,0,1-3.66-1.62,15.55,15.55,0,0,1-2.88-2l2.88-4.56a4.26,4.26,0,0,1,1.24-1.26,3.51,3.51,0,0,1,1.88-.46,3.9,3.9,0,0,1,1.94.48l1.86,1a15.15,15.15,0,0,0,2.34,1,10.17,10.17,0,0,0,3.38.48,8.55,8.55,0,0,0,2.44-.3,4.23,4.23,0,0,0,1.6-.82,3.12,3.12,0,0,0,.88-1.16,3.16,3.16,0,0,0,.28-1.32,2.71,2.71,0,0,0-.84-2,7.41,7.41,0,0,0-2.2-1.38,29.07,29.07,0,0,0-3.1-1.08q-1.74-.5-3.54-1.14A27.48,27.48,0,0,1,337,55.59a12.24,12.24,0,0,1-3.1-2.28,10.63,10.63,0,0,1-2.2-3.38,12.45,12.45,0,0,1-.84-4.84,12.62,12.62,0,0,1,1-5A11.71,11.71,0,0,1,335,35.89,15.11,15.11,0,0,1,340.07,33a22.38,22.38,0,0,1,7.2-1.06,23.67,23.67,0,0,1,4.34.4,22.3,22.3,0,0,1,3.94,1.12,18.87,18.87,0,0,1,3.36,1.7,16.24,16.24,0,0,1,2.68,2.14Z"></path><path class="cls-1" d="M426.39,15.81V26.53H410V74.09H396.47V26.53h-16.4V15.81Z"></path><path class="cls-1" d="M441.75,32a21.42,21.42,0,0,1,7.54,1.28A16.57,16.57,0,0,1,455.17,37,17,17,0,0,1,459,43a22,22,0,0,1,1.38,8,17.36,17.36,0,0,1-.12,2.28,3.45,3.45,0,0,1-.44,1.4,1.63,1.63,0,0,1-.86.72,3.87,3.87,0,0,1-1.38.2H433.67c.4,3.47,1.46,6,3.16,7.54a9.41,9.41,0,0,0,6.6,2.34,11.72,11.72,0,0,0,3.72-.52,17.62,17.62,0,0,0,2.78-1.16l2.24-1.16a4.76,4.76,0,0,1,2.14-.52,2.55,2.55,0,0,1,2.24,1.08l3.6,4.44A18.35,18.35,0,0,1,456,71.19a21.51,21.51,0,0,1-4.56,2.16,24.72,24.72,0,0,1-4.68,1.08,35,35,0,0,1-4.46.3,23.25,23.25,0,0,1-8.18-1.42,18.75,18.75,0,0,1-6.68-4.22,19.93,19.93,0,0,1-4.52-7,26.13,26.13,0,0,1-1.66-9.68,21.85,21.85,0,0,1,1.42-7.88,19.14,19.14,0,0,1,10.52-11A21.32,21.32,0,0,1,441.75,32Zm.24,8.56a7.51,7.51,0,0,0-5.56,2,10.59,10.59,0,0,0-2.64,5.82h15.48a10.74,10.74,0,0,0-.38-2.88,6.9,6.9,0,0,0-1.24-2.5,6.33,6.33,0,0,0-2.26-1.78A7.75,7.75,0,0,0,442,40.53Z"></path><path class="cls-1" d="M467.51,74.09V32.61h7.36a6.56,6.56,0,0,1,1.54.16,2.8,2.8,0,0,1,1,.5,2.12,2.12,0,0,1,.64.9,7.49,7.49,0,0,1,.38,1.36l.68,3.88a20.48,20.48,0,0,1,5.12-5.56,10.4,10.4,0,0,1,6.2-2A7.18,7.18,0,0,1,495,33.17l-1.6,9.12a1.74,1.74,0,0,1-.64,1.18,2.16,2.16,0,0,1-1.28.34,8.58,8.58,0,0,1-1.6-.18,12.33,12.33,0,0,0-2.32-.18q-4.87,0-7.68,5.2V74.09Z"></path><path class="cls-1" d="M500.55,74.09V32.61h7.36a6.62,6.62,0,0,1,1.54.16,2.88,2.88,0,0,1,1,.5,2.21,2.21,0,0,1,.64.9,8.4,8.4,0,0,1,.38,1.36l.68,3.88a20.48,20.48,0,0,1,5.12-5.56,10.4,10.4,0,0,1,6.2-2,7.2,7.2,0,0,1,4.56,1.36l-1.6,9.12a1.78,1.78,0,0,1-.64,1.18,2.16,2.16,0,0,1-1.28.34,8.49,8.49,0,0,1-1.6-.18,12.4,12.4,0,0,0-2.32-.18q-4.87,0-7.68,5.2V74.09Z"></path><path class="cls-1" d="M547.83,21.25a6.52,6.52,0,0,1-.6,2.78,7.29,7.29,0,0,1-1.64,2.28,7.74,7.74,0,0,1-2.42,1.56,7.45,7.45,0,0,1-2.94.58,6.94,6.94,0,0,1-2.84-.58,7.73,7.73,0,0,1-2.34-1.56,7.18,7.18,0,0,1-1.6-2.28,6.66,6.66,0,0,1-.58-2.78,6.94,6.94,0,0,1,.58-2.84,7.46,7.46,0,0,1,1.6-2.32,7.73,7.73,0,0,1,2.34-1.56,7.27,7.27,0,0,1,2.84-.56,7.69,7.69,0,0,1,5.36,2.12,7.58,7.58,0,0,1,1.64,2.32A6.79,6.79,0,0,1,547.83,21.25Zm-1.44,11.36V74.09H534V32.61Z"></path><path class="cls-1" d="M571,74.73a14.5,14.5,0,0,1-5.22-.86,10.07,10.07,0,0,1-6.14-6.26,14.61,14.61,0,0,1-.8-5V41.17h-3.52A2.24,2.24,0,0,1,553,38.73V33.89l6.6-1.28L562,22.49a2.46,2.46,0,0,1,2.72-1.92h6.48V32.69h10.08v8.48H571.19v20.6a3.84,3.84,0,0,0,.7,2.38,2.36,2.36,0,0,0,2,.94,3.78,3.78,0,0,0,1.14-.14,4.3,4.3,0,0,0,.8-.32l.64-.32a1.68,1.68,0,0,1,.7-.14,1.48,1.48,0,0,1,.9.26,3.33,3.33,0,0,1,.7.82l3.76,5.88a17.11,17.11,0,0,1-5.4,2.7A21.48,21.48,0,0,1,571,74.73Z"></path><path class="cls-1" d="M606.87,32a24.14,24.14,0,0,1,8.6,1.48,18.94,18.94,0,0,1,6.66,4.24,19.25,19.25,0,0,1,4.32,6.7A24.11,24.11,0,0,1,628,53.25a24.51,24.51,0,0,1-1.54,8.94A19.24,19.24,0,0,1,622.13,69a18.89,18.89,0,0,1-6.66,4.28,23.71,23.71,0,0,1-8.6,1.5,24,24,0,0,1-8.66-1.5A19.23,19.23,0,0,1,591.49,69a18.91,18.91,0,0,1-4.36-6.76,24.51,24.51,0,0,1-1.54-8.94,24.11,24.11,0,0,1,1.54-8.86,18.93,18.93,0,0,1,4.36-6.7,19.28,19.28,0,0,1,6.72-4.24A24.4,24.4,0,0,1,606.87,32Zm0,33.56a7,7,0,0,0,6.3-3c1.34-2,2-5.07,2-9.18s-.68-7.16-2-9.16a7.07,7.07,0,0,0-6.3-3q-4.39,0-6.44,3c-1.36,2-2,5.06-2,9.16s.68,7.17,2,9.18S603.94,65.53,606.87,65.53Z"></path><path class="cls-1" d="M649,21.25a6.52,6.52,0,0,1-.6,2.78,7.29,7.29,0,0,1-1.64,2.28,7.86,7.86,0,0,1-2.42,1.56,7.45,7.45,0,0,1-2.94.58,6.9,6.9,0,0,1-2.84-.58,7.73,7.73,0,0,1-2.34-1.56,7,7,0,0,1-1.6-2.28,6.66,6.66,0,0,1-.58-2.78,6.94,6.94,0,0,1,.58-2.84,7.3,7.3,0,0,1,1.6-2.32,7.73,7.73,0,0,1,2.34-1.56,7.23,7.23,0,0,1,2.84-.56,7.69,7.69,0,0,1,5.36,2.12,7.58,7.58,0,0,1,1.64,2.32A6.79,6.79,0,0,1,649,21.25Zm-1.44,11.36V74.09h-12.4V32.61Z"></path><path class="cls-1" d="M657.59,74.09V32.61H665a6.68,6.68,0,0,1,1.54.16,2.88,2.88,0,0,1,1,.5,2.21,2.21,0,0,1,.64.9,9.56,9.56,0,0,1,.38,1.36l.68,3.88a20.32,20.32,0,0,1,5.12-5.56,10.4,10.4,0,0,1,6.2-2,7.2,7.2,0,0,1,4.56,1.36l-1.6,9.12a1.78,1.78,0,0,1-.64,1.18,2.16,2.16,0,0,1-1.28.34,8.4,8.4,0,0,1-1.6-.18,12.48,12.48,0,0,0-2.32-.18q-4.89,0-7.68,5.2V74.09Z"></path><path class="cls-1" d="M708.38,32a21.38,21.38,0,0,1,7.54,1.28A16.7,16.7,0,0,1,721.81,37a17,17,0,0,1,3.84,6A22,22,0,0,1,727,51a17.36,17.36,0,0,1-.12,2.28,3.44,3.44,0,0,1-.45,1.4,1.65,1.65,0,0,1-.85.72,3.91,3.91,0,0,1-1.38.2H700.31c.39,3.47,1.45,6,3.15,7.54a9.42,9.42,0,0,0,6.61,2.34,11.8,11.8,0,0,0,3.72-.52,18,18,0,0,0,2.78-1.16l2.24-1.16a4.73,4.73,0,0,1,2.14-.52,2.58,2.58,0,0,1,2.24,1.08l3.6,4.44a18.79,18.79,0,0,1-4.14,3.58,21.59,21.59,0,0,1-4.57,2.16,24.62,24.62,0,0,1-4.67,1.08,35.28,35.28,0,0,1-4.46.3,23.17,23.17,0,0,1-8.18-1.42,18.7,18.7,0,0,1-6.69-4.22,19.77,19.77,0,0,1-4.51-7,25.93,25.93,0,0,1-1.66-9.68,21.85,21.85,0,0,1,1.42-7.88,19.23,19.23,0,0,1,4.08-6.52,19.65,19.65,0,0,1,6.43-4.44A21.36,21.36,0,0,1,708.38,32Zm.24,8.56a7.47,7.47,0,0,0-5.55,2,10.53,10.53,0,0,0-2.65,5.82h15.49a11.16,11.16,0,0,0-.38-2.88,7.24,7.24,0,0,0-1.24-2.5A6.51,6.51,0,0,0,712,41.21,7.82,7.82,0,0,0,708.62,40.53Z"></path><path class="cls-1" d="M759.5,41.69a3.15,3.15,0,0,1-1,1.08,2.61,2.61,0,0,1-1.38.32,4.33,4.33,0,0,1-1.76-.38l-1.9-.82a22.37,22.37,0,0,0-2.3-.82,10.34,10.34,0,0,0-2.92-.38,6.18,6.18,0,0,0-3.62.9,2.91,2.91,0,0,0-1.26,2.5,2.51,2.51,0,0,0,.82,1.92,7.45,7.45,0,0,0,2.18,1.34,28.61,28.61,0,0,0,3.08,1.1c1.15.35,2.32.74,3.52,1.16a32.07,32.07,0,0,1,3.52,1.5,13.16,13.16,0,0,1,3.08,2.12,9.32,9.32,0,0,1,2.18,3.06,10.31,10.31,0,0,1,.82,4.32,14.11,14.11,0,0,1-1.12,5.68,11.91,11.91,0,0,1-3.34,4.48,15.57,15.57,0,0,1-5.48,2.92,24.45,24.45,0,0,1-7.5,1,22.62,22.62,0,0,1-4.24-.4,27.74,27.74,0,0,1-4.1-1.08,21.78,21.78,0,0,1-3.66-1.62,15.55,15.55,0,0,1-2.88-2l2.88-4.56a4.26,4.26,0,0,1,1.24-1.26,3.54,3.54,0,0,1,1.88-.46,3.9,3.9,0,0,1,1.94.48l1.86,1a15.15,15.15,0,0,0,2.34,1,10.17,10.17,0,0,0,3.38.48,8.55,8.55,0,0,0,2.44-.3,4.35,4.35,0,0,0,1.61-.82,3.2,3.2,0,0,0,.87-1.16,3.16,3.16,0,0,0,.28-1.32,2.71,2.71,0,0,0-.84-2,7.41,7.41,0,0,0-2.2-1.38,29.07,29.07,0,0,0-3.1-1.08q-1.74-.5-3.54-1.14a27.48,27.48,0,0,1-3.54-1.54,12.24,12.24,0,0,1-3.1-2.28,10.63,10.63,0,0,1-2.2-3.38,12.45,12.45,0,0,1-.84-4.84,12.62,12.62,0,0,1,1-5,11.83,11.83,0,0,1,3.06-4.18A15.07,15.07,0,0,1,740.79,33,22.27,22.27,0,0,1,748,32a23.86,23.86,0,0,1,4.35.4,22.43,22.43,0,0,1,3.93,1.12,18.87,18.87,0,0,1,3.36,1.7,16.24,16.24,0,0,1,2.68,2.14Z"></path><path class="cls-5" d="M259.19,153.79a5.82,5.82,0,0,1-2.66-.48,3.64,3.64,0,0,1-1.5-2l-.88-2.28c-1,.88-2,1.66-3,2.32a18.11,18.11,0,0,1-3,1.7,14.11,14.11,0,0,1-3.28,1,19.87,19.87,0,0,1-3.86.34,16.75,16.75,0,0,1-5.16-.74,10.65,10.65,0,0,1-3.94-2.19,9.63,9.63,0,0,1-2.5-3.59,13.09,13.09,0,0,1-.88-4.95,10.54,10.54,0,0,1,1.12-4.54,11.2,11.2,0,0,1,3.88-4.23A24.49,24.49,0,0,1,241,131a45.34,45.34,0,0,1,11.8-1.29v-1.77q0-3.68-1.5-5.31A5.49,5.49,0,0,0,247,121a11.36,11.36,0,0,0-3.6.48,16.62,16.62,0,0,0-2.5,1.08c-.73.4-1.44.76-2.14,1.08a5.87,5.87,0,0,1-2.48.48,3.71,3.71,0,0,1-2.18-.62,4.55,4.55,0,0,1-1.42-1.54l-2.24-3.88a25.34,25.34,0,0,1,8.34-4.94,29.28,29.28,0,0,1,9.82-1.62,18,18,0,0,1,6.78,1.22,14.67,14.67,0,0,1,5.12,3.4,14.82,14.82,0,0,1,3.22,5.18,18.55,18.55,0,0,1,1.12,6.56v25.92ZM245,146.23a9.84,9.84,0,0,0,4.2-.84,12.58,12.58,0,0,0,3.64-2.72V137a32,32,0,0,0-6.12.49,14.53,14.53,0,0,0-3.8,1.21,4.59,4.59,0,0,0-1.94,1.65,3.94,3.94,0,0,0-.54,2,3.54,3.54,0,0,0,1.16,3A5.63,5.63,0,0,0,245,146.23Z"></path><path class="cls-5" d="M285.27,112.31v26.32a7.24,7.24,0,0,0,1.4,4.76,5.07,5.07,0,0,0,4.12,1.68,8.82,8.82,0,0,0,3.82-.84,14,14,0,0,0,3.46-2.36V112.31h12.4v41.48h-7.68a2.92,2.92,0,0,1-3-2.08l-.76-2.4a21.91,21.91,0,0,1-2.48,2.1,14.66,14.66,0,0,1-2.74,1.6,16.07,16.07,0,0,1-3.14,1,16.25,16.25,0,0,1-3.68.38,14.5,14.5,0,0,1-6-1.18,12.29,12.29,0,0,1-4.42-3.3,14.47,14.47,0,0,1-2.72-5,20.75,20.75,0,0,1-.92-6.32V112.31Z"></path><path class="cls-5" d="M330,132.35l-13.36-20h11.92a4.29,4.29,0,0,1,1.94.34,3.1,3.1,0,0,1,1.1,1.14l7.4,12.28a9.51,9.51,0,0,1,.6-1.4c.24-.45.51-.93.8-1.44l5.28-9.24a3.48,3.48,0,0,1,1.16-1.3,3.05,3.05,0,0,1,1.56-.38h11.36l-13.36,19.48,13.92,22H348.39a3.27,3.27,0,0,1-2.12-.64,5.51,5.51,0,0,1-1.32-1.52l-7.4-12.72a8.08,8.08,0,0,1-.48,1.28,11.71,11.71,0,0,1-.6,1.12l-6.08,10.32a5.5,5.5,0,0,1-1.28,1.5,3,3,0,0,1-2,.66h-11Z"></path><path class="cls-1" d="M408.79,144a23,23,0,0,0,5-.48,23.68,23.68,0,0,0,4.08-1.28v-8.84h-5.76a2.77,2.77,0,0,1-2-.68,2.25,2.25,0,0,1-.72-1.72v-7.44h20.72v24.6a29.5,29.5,0,0,1-4.66,2.82,29.1,29.1,0,0,1-5.16,1.94,38,38,0,0,1-5.84,1.12,58,58,0,0,1-6.66.36,30.5,30.5,0,0,1-11.84-2.26,28.5,28.5,0,0,1-9.42-6.24,28.79,28.79,0,0,1-6.24-9.44A30.63,30.63,0,0,1,378,124.63a32.31,32.31,0,0,1,2.16-12,27,27,0,0,1,6.18-9.42,28.09,28.09,0,0,1,9.72-6.16,35.29,35.29,0,0,1,12.74-2.2,37.05,37.05,0,0,1,6.84.6,34,34,0,0,1,5.9,1.64,27.48,27.48,0,0,1,4.94,2.48,26.61,26.61,0,0,1,4,3.12l-3.92,6a4.32,4.32,0,0,1-1.34,1.32,3.19,3.19,0,0,1-1.7.48,4.62,4.62,0,0,1-2.48-.8C420,109,419,108.48,418,108a19.82,19.82,0,0,0-2.9-1.14,20.27,20.27,0,0,0-3.12-.64,31.28,31.28,0,0,0-3.68-.2,16.87,16.87,0,0,0-6.84,1.34,14.83,14.83,0,0,0-5.18,3.78A17,17,0,0,0,393,117a23.71,23.71,0,0,0-1.16,7.62,24.58,24.58,0,0,0,1.28,8.24,17.57,17.57,0,0,0,3.54,6.08,14.87,14.87,0,0,0,5.36,3.78A17.32,17.32,0,0,0,408.79,144Z"></path><path class="cls-1" d="M438.31,153.79V112.31h7.36a6.62,6.62,0,0,1,1.54.16,2.88,2.88,0,0,1,1,.5,2.21,2.21,0,0,1,.64.9,8.4,8.4,0,0,1,.38,1.36l.68,3.88a20.48,20.48,0,0,1,5.12-5.56,10.4,10.4,0,0,1,6.2-2,7.2,7.2,0,0,1,4.56,1.36l-1.6,9.12a1.78,1.78,0,0,1-.64,1.18,2.16,2.16,0,0,1-1.28.34,8.49,8.49,0,0,1-1.6-.18,12.4,12.4,0,0,0-2.32-.18q-4.87,0-7.68,5.2v25.44Z"></path><path class="cls-1" d="M499.19,153.79a5.82,5.82,0,0,1-2.66-.48,3.64,3.64,0,0,1-1.5-2l-.88-2.28c-1,.88-2,1.66-3,2.32a18.11,18.11,0,0,1-3,1.7,14.27,14.27,0,0,1-3.28,1,19.94,19.94,0,0,1-3.86.34,16.71,16.71,0,0,1-5.16-.74,10.57,10.57,0,0,1-3.94-2.19,9.63,9.63,0,0,1-2.5-3.59,12.9,12.9,0,0,1-.88-4.95,10.4,10.4,0,0,1,1.12-4.54,11.12,11.12,0,0,1,3.88-4.23A24.49,24.49,0,0,1,481,131a45.28,45.28,0,0,1,11.8-1.29v-1.77q0-3.68-1.5-5.31A5.49,5.49,0,0,0,487,121a11.27,11.27,0,0,0-3.6.48,15.77,15.77,0,0,0-2.5,1.08c-.73.4-1.45.76-2.14,1.08a5.87,5.87,0,0,1-2.48.48,3.69,3.69,0,0,1-2.18-.62,4.55,4.55,0,0,1-1.42-1.54l-2.24-3.88a25.24,25.24,0,0,1,8.34-4.94,29.24,29.24,0,0,1,9.82-1.62,18,18,0,0,1,6.78,1.22,14.76,14.76,0,0,1,5.12,3.4,15,15,0,0,1,3.22,5.18,18.78,18.78,0,0,1,1.12,6.56v25.92ZM485,146.23a9.84,9.84,0,0,0,4.2-.84,12.72,12.72,0,0,0,3.64-2.72V137a32,32,0,0,0-6.12.49,14.41,14.41,0,0,0-3.8,1.21,4.59,4.59,0,0,0-1.94,1.65,3.94,3.94,0,0,0-.54,2,3.54,3.54,0,0,0,1.16,3A5.59,5.59,0,0,0,485,146.23Z"></path><path class="cls-1" d="M513.67,153.79V112.31h7.68a3.48,3.48,0,0,1,1.94.52,2.83,2.83,0,0,1,1.1,1.56l.72,2.4a30.34,30.34,0,0,1,2.48-2.08,14.22,14.22,0,0,1,2.74-1.62,16.49,16.49,0,0,1,3.16-1,17.1,17.1,0,0,1,3.7-.38,14.66,14.66,0,0,1,6,1.18,12.59,12.59,0,0,1,4.42,3.28,14.29,14.29,0,0,1,2.72,5,20.9,20.9,0,0,1,.92,6.3v26.36h-12.4V127.43a7.3,7.3,0,0,0-1.4-4.74,5.05,5.05,0,0,0-4.12-1.7,8.72,8.72,0,0,0-3.84.88,15.18,15.18,0,0,0-3.44,2.36v29.56Z"></path><path class="cls-1" d="M589.19,153.79a3.38,3.38,0,0,1-1.94-.52,2.72,2.72,0,0,1-1.1-1.56l-1-3.16a25.31,25.31,0,0,1-2.6,2.4,16.59,16.59,0,0,1-2.94,1.86,15.74,15.74,0,0,1-3.4,1.2,17.57,17.57,0,0,1-3.94.42,12.78,12.78,0,0,1-6-1.44,13.73,13.73,0,0,1-4.76-4.16,20.78,20.78,0,0,1-3.14-6.66,32.31,32.31,0,0,1-1.14-9,27.85,27.85,0,0,1,1.28-8.62,21.17,21.17,0,0,1,3.62-6.88,16.9,16.9,0,0,1,5.62-4.54,16,16,0,0,1,7.24-1.64,14,14,0,0,1,5.42.94,15.83,15.83,0,0,1,4,2.46v-21h12.4v59.88Zm-12.56-8.88a10.43,10.43,0,0,0,2.46-.26,8.66,8.66,0,0,0,2-.74,9,9,0,0,0,1.74-1.2,16.35,16.35,0,0,0,1.62-1.68v-17.6a8.27,8.27,0,0,0-3.06-2.18,9.56,9.56,0,0,0-3.42-.62,7.34,7.34,0,0,0-3.16.68,6.45,6.45,0,0,0-2.5,2.18,11.54,11.54,0,0,0-1.66,3.9,24.27,24.27,0,0,0-.6,5.8,26.82,26.82,0,0,0,.48,5.52,11.15,11.15,0,0,0,1.34,3.62,5.18,5.18,0,0,0,2.06,2A5.9,5.9,0,0,0,576.63,144.91Z"></path><path class="cls-1" d="M624.22,111.67a21.38,21.38,0,0,1,7.54,1.28,16.7,16.7,0,0,1,5.89,3.72,17,17,0,0,1,3.84,6,22,22,0,0,1,1.38,8,15.56,15.56,0,0,1-.13,2.28,3.45,3.45,0,0,1-.44,1.4,1.65,1.65,0,0,1-.85.72,4,4,0,0,1-1.38.2H616.15c.39,3.47,1.45,6,3.15,7.54a9.42,9.42,0,0,0,6.61,2.34,11.7,11.7,0,0,0,3.71-.52,18.16,18.16,0,0,0,2.79-1.16l2.24-1.16a4.73,4.73,0,0,1,2.14-.52,2.58,2.58,0,0,1,2.24,1.08l3.59,4.44a18.52,18.52,0,0,1-4.13,3.58,21.59,21.59,0,0,1-4.57,2.16,24.54,24.54,0,0,1-4.68,1.08,35,35,0,0,1-4.45.3,23.17,23.17,0,0,1-8.18-1.42,18.7,18.7,0,0,1-6.69-4.22,19.77,19.77,0,0,1-4.51-7,25.92,25.92,0,0,1-1.67-9.68,22.06,22.06,0,0,1,1.42-7.88,19.14,19.14,0,0,1,10.52-11A21.32,21.32,0,0,1,624.22,111.67Zm.24,8.56a7.47,7.47,0,0,0-5.55,2,10.53,10.53,0,0,0-2.65,5.82h15.48a11.15,11.15,0,0,0-.37-2.88,7.09,7.09,0,0,0-1.25-2.5,6.38,6.38,0,0,0-2.25-1.78A7.82,7.82,0,0,0,624.46,120.23Z"></path><path class="cls-1" d="M675.34,121.39a3.15,3.15,0,0,1-1,1.08,2.61,2.61,0,0,1-1.38.32,4.33,4.33,0,0,1-1.76-.38l-1.9-.82a22.37,22.37,0,0,0-2.3-.82,10.34,10.34,0,0,0-2.92-.38,6.18,6.18,0,0,0-3.62.9,2.91,2.91,0,0,0-1.26,2.5,2.51,2.51,0,0,0,.82,1.92,7.45,7.45,0,0,0,2.18,1.34,28.61,28.61,0,0,0,3.08,1.1c1.15.35,2.32.74,3.52,1.16a32.07,32.07,0,0,1,3.52,1.5,13.16,13.16,0,0,1,3.08,2.12,9.32,9.32,0,0,1,2.18,3.06,10.31,10.31,0,0,1,.82,4.32,14.11,14.11,0,0,1-1.12,5.68,11.91,11.91,0,0,1-3.34,4.48,15.57,15.57,0,0,1-5.48,2.92,24.45,24.45,0,0,1-7.5,1,22.62,22.62,0,0,1-4.24-.4,27.74,27.74,0,0,1-4.1-1.08,21.78,21.78,0,0,1-3.66-1.62,15.55,15.55,0,0,1-2.88-2l2.88-4.56a4.26,4.26,0,0,1,1.24-1.26,3.51,3.51,0,0,1,1.88-.46,3.9,3.9,0,0,1,1.94.48l1.86,1a15.15,15.15,0,0,0,2.34,1,10.17,10.17,0,0,0,3.38.48,8.55,8.55,0,0,0,2.44-.3,4.23,4.23,0,0,0,1.6-.82,3.12,3.12,0,0,0,.88-1.16,3.16,3.16,0,0,0,.28-1.32,2.71,2.71,0,0,0-.84-2,7.41,7.41,0,0,0-2.2-1.38,29.07,29.07,0,0,0-3.1-1.08q-1.74-.5-3.54-1.14a27.48,27.48,0,0,1-3.54-1.54,12.24,12.24,0,0,1-3.1-2.28,10.63,10.63,0,0,1-2.2-3.38,12.45,12.45,0,0,1-.84-4.84,12.62,12.62,0,0,1,1-5,11.71,11.71,0,0,1,3.06-4.18,15.11,15.11,0,0,1,5.12-2.86,22.38,22.38,0,0,1,7.2-1.06,23.67,23.67,0,0,1,4.34.4,22.3,22.3,0,0,1,3.94,1.12,18.87,18.87,0,0,1,3.36,1.7,16.24,16.24,0,0,1,2.68,2.14Z"></path><path class="cls-1" d="M738.14,95.51v10.4H714.22v13.6h18.32v10H714.22v13.88h23.92v10.4H700.62V95.51ZM737,81.87l-11.8,8.56a5.8,5.8,0,0,1-1.94,1.06,8,8,0,0,1-2.26.26h-9.84l7.24-7.88a7.65,7.65,0,0,1,1-1,5.43,5.43,0,0,1,1.06-.62,4.8,4.8,0,0,1,1.24-.32,14.84,14.84,0,0,1,1.6-.08Z"></path><path class="cls-1" d="M775.74,122.15a6.1,6.1,0,0,1-1.08,1.08,2.35,2.35,0,0,1-1.48.4,3.15,3.15,0,0,1-1.66-.44l-1.66-1a12.87,12.87,0,0,0-2.16-1,9.34,9.34,0,0,0-3.08-.44,8.64,8.64,0,0,0-3.94.84,7.35,7.35,0,0,0-2.74,2.4,11.09,11.09,0,0,0-1.6,3.82,22.67,22.67,0,0,0-.52,5.1q0,6,2.3,9.16a7.38,7.38,0,0,0,6.34,3.2,8.86,8.86,0,0,0,3.42-.54,10.19,10.19,0,0,0,2.14-1.2c.59-.44,1.13-.84,1.62-1.22a3,3,0,0,1,1.86-.56,2.55,2.55,0,0,1,2.24,1.08l3.6,4.44a19.32,19.32,0,0,1-4,3.58,20.19,20.19,0,0,1-4.34,2.16,22.46,22.46,0,0,1-4.46,1.08,32.73,32.73,0,0,1-4.36.3,18.73,18.73,0,0,1-7.26-1.44,17.84,17.84,0,0,1-6.08-4.18,20.08,20.08,0,0,1-4.16-6.74A25.34,25.34,0,0,1,743.1,133a25.74,25.74,0,0,1,1.34-8.38,19.25,19.25,0,0,1,4-6.76,18.65,18.65,0,0,1,6.48-4.5,22.81,22.81,0,0,1,8.94-1.64,21.76,21.76,0,0,1,8.56,1.56,20.43,20.43,0,0,1,6.64,4.56Z"></path><path class="cls-1" d="M803.18,111.67a24.1,24.1,0,0,1,8.6,1.48,18.85,18.85,0,0,1,6.66,4.24,19.25,19.25,0,0,1,4.32,6.7A24.11,24.11,0,0,1,824.3,133a24.51,24.51,0,0,1-1.54,8.94,19.24,19.24,0,0,1-4.32,6.76,18.8,18.8,0,0,1-6.66,4.28,23.67,23.67,0,0,1-8.6,1.5,24,24,0,0,1-8.66-1.5,19.23,19.23,0,0,1-6.72-4.28,18.91,18.91,0,0,1-4.36-6.76A24.51,24.51,0,0,1,781.9,133a24.11,24.11,0,0,1,1.54-8.86,18.93,18.93,0,0,1,4.36-6.7,19.28,19.28,0,0,1,6.72-4.24A24.4,24.4,0,0,1,803.18,111.67Zm0,33.56a7,7,0,0,0,6.3-3q2-3,2-9.18c0-4.1-.67-7.16-2-9.16a7.07,7.07,0,0,0-6.3-3q-4.39,0-6.44,3c-1.36,2-2,5.06-2,9.16s.68,7.17,2,9.18S800.25,145.23,803.18,145.23Z"></path><path class="cls-1" d="M843.9,93.91v59.88H831.5V93.91Z"></path><path class="cls-1" d="M871.66,111.67A21.42,21.42,0,0,1,879.2,113a16.57,16.57,0,0,1,5.88,3.72,17,17,0,0,1,3.84,6,22,22,0,0,1,1.38,8,17.36,17.36,0,0,1-.12,2.28,3.61,3.61,0,0,1-.44,1.4,1.67,1.67,0,0,1-.86.72,3.87,3.87,0,0,1-1.38.2H863.58q.6,5.21,3.16,7.54a9.4,9.4,0,0,0,6.6,2.34,11.72,11.72,0,0,0,3.72-.52,18,18,0,0,0,2.78-1.16l2.24-1.16a4.73,4.73,0,0,1,2.14-.52,2.58,2.58,0,0,1,2.24,1.08l3.6,4.44a18.35,18.35,0,0,1-4.14,3.58,21.51,21.51,0,0,1-4.56,2.16,24.72,24.72,0,0,1-4.68,1.08,35.16,35.16,0,0,1-4.46.3A23.17,23.17,0,0,1,864,153a18.57,18.57,0,0,1-6.68-4.22,19.79,19.79,0,0,1-4.52-7,25.93,25.93,0,0,1-1.66-9.68,21.85,21.85,0,0,1,1.42-7.88,19.39,19.39,0,0,1,4.08-6.52,19.59,19.59,0,0,1,6.44-4.44A21.32,21.32,0,0,1,871.66,111.67Zm.24,8.56a7.48,7.48,0,0,0-5.56,2,10.46,10.46,0,0,0-2.64,5.82h15.48a11.16,11.16,0,0,0-.38-2.88,7.24,7.24,0,0,0-1.24-2.5,6.42,6.42,0,0,0-2.26-1.78A7.78,7.78,0,0,0,871.9,120.23Z"></path><path class="cls-1" d="M922.78,121.39a3.15,3.15,0,0,1-1,1.08,2.61,2.61,0,0,1-1.38.32,4.26,4.26,0,0,1-1.76-.38l-1.9-.82a23.25,23.25,0,0,0-2.3-.82,10.44,10.44,0,0,0-2.92-.38,6.16,6.16,0,0,0-3.62.9,2.91,2.91,0,0,0-1.26,2.5,2.47,2.47,0,0,0,.82,1.92,7.19,7.19,0,0,0,2.18,1.34,27.14,27.14,0,0,0,3.08,1.1c1.14.35,2.32.74,3.52,1.16a32.91,32.91,0,0,1,3.52,1.5,13.59,13.59,0,0,1,3.08,2.12A9.62,9.62,0,0,1,925,136a10.47,10.47,0,0,1,.82,4.32A14.29,14.29,0,0,1,924.7,146a12,12,0,0,1-3.34,4.48,15.66,15.66,0,0,1-5.48,2.92,24.54,24.54,0,0,1-7.5,1,22.46,22.46,0,0,1-4.24-.4A27.42,27.42,0,0,1,900,153a21.78,21.78,0,0,1-3.66-1.62,15.55,15.55,0,0,1-2.88-2l2.88-4.56a4.14,4.14,0,0,1,1.24-1.26,3.49,3.49,0,0,1,1.88-.46,3.93,3.93,0,0,1,1.94.48l1.86,1a14.33,14.33,0,0,0,2.34,1,10.13,10.13,0,0,0,3.38.48,8.6,8.6,0,0,0,2.44-.3,4.3,4.3,0,0,0,1.6-.82,3.23,3.23,0,0,0,.88-1.16,3.33,3.33,0,0,0,.28-1.32,2.71,2.71,0,0,0-.84-2,7.54,7.54,0,0,0-2.2-1.38,29.87,29.87,0,0,0-3.1-1.08q-1.74-.5-3.54-1.14a27.48,27.48,0,0,1-3.54-1.54,12.06,12.06,0,0,1-3.1-2.28,10.47,10.47,0,0,1-2.2-3.38,12.45,12.45,0,0,1-.84-4.84,12.62,12.62,0,0,1,1-5,11.71,11.71,0,0,1,3.06-4.18,15,15,0,0,1,5.12-2.86,22.29,22.29,0,0,1,7.2-1.06,23.75,23.75,0,0,1,4.34.4,22.55,22.55,0,0,1,3.94,1.12,19.57,19.57,0,0,1,3.36,1.7,17.12,17.12,0,0,1,2.68,2.14Z"></path></g></g></svg>
