<?xml version="1.0" encoding="UTF-8"?> <svg xmlns="http://www.w3.org/2000/svg" viewBox="0 0 925.82 173.11"><defs><style>.cls-1{fill:#111;}.cls-2{fill:#303030;}.cls-3{fill:#c62e2e;}.cls-4{fill:#bc1e1e;}.cls-5{fill:#e23d3d;}</style></defs><g id="Calque_2" data-name="Calque 2"><g id="Calque_1-2" data-name="Calque 1"><g id="chapeau_vex" data-name="chapeau vex"><path class="cls-1" d="M200.31,27.12v93.16l-36.47,17.5-8,3.84a12.91,12.91,0,0,1-11.19,0l-8-3.84L89.8,115.25,74.68,108,36.21,89.49l-8.3-4L1.87,73a3.3,3.3,0,0,1,0-6l26-12,8.3-3.82L41,49h0L144.85,1.19a12.91,12.91,0,0,1,10.79,0l39.75,18.27A8.43,8.43,0,0,1,200.31,27.12Z"></path><path class="cls-2" d="M200.31,58.77v79H71.05v0a.06.06,0,0,1,0,0l.42-3.44,3.2-26.3,2.51-20.63L77.84,82a13.3,13.3,0,0,1,1-3.77c0-.07,0-.13.08-.19C86.25,61.45,115.6,49,150.68,49,169.81,49,187.23,52.71,200.31,58.77Z"></path><path class="cls-1" d="M200.31,110.62v48.54a8.39,8.39,0,0,1-6,8.06,157.28,157.28,0,0,1-43.94,5.89c-43.82,0-79.34-15.75-79.34-35.17a.86.86,0,0,1,0-.16s0,0,0,0a.06.06,0,0,1,0,0,15.35,15.35,0,0,1,.42-3.44c1.68-7.22,8.29-13.79,18.32-19,14.55-7.63,36.3-12.47,60.59-12.47C169.3,102.78,186.67,105.71,200.31,110.62Z"></path><path class="cls-3" d="M17.51,168.54a4.15,4.15,0,0,1-2-5.52l12.77-26.91a4.15,4.15,0,0,1,7.49,3.56L23,166.57A4.15,4.15,0,0,1,17.51,168.54Z"></path><path class="cls-3" d="M41.09,166.57l-12.77-26.9a4.15,4.15,0,0,1,7.49-3.56L48.58,163a4.14,4.14,0,0,1-7.49,3.55Z"></path><path class="cls-3" d="M41,49l-4.77,2.2v68.25c0,1.84-1.86,3.33-4.14,3.33s-4.15-1.49-4.15-3.33V52.34c0-1.83,1.86-3.33,4.15-3.33Z"></path><path class="cls-4" d="M32.06,138a4.14,4.14,0,0,1-4.14-4.14V165a4.15,4.15,0,1,0,8.29,0V133.87A4.14,4.14,0,0,1,32.06,138Z"></path><path class="cls-5" d="M32.06,173.1A4.14,4.14,0,0,1,27.92,169V137.89a4.15,4.15,0,0,1,8.29,0V169A4.14,4.14,0,0,1,32.06,173.1Z"></path><circle class="cls-5" cx="32.06" cy="127.45" r="10.44"></circle><path class="cls-3" d="M30.66,123.3a10.37,10.37,0,0,1,2.1-6.27c-.23,0-.46,0-.7,0a10.45,10.45,0,1,0,8.35,16.72A10.45,10.45,0,0,1,30.66,123.3Z"></path><path class="cls-3" d="M38.72,143.49H25.4a4.15,4.15,0,0,1,0-8.29H38.72a4.15,4.15,0,1,1,0,8.29Z"></path></g></g></g></svg>
